PathFileType	4	(X/Y/Z)	\\147.46.242.158\로컬 디스크 (e)\MOCAP Data\Iguana Capture\iguana\Project 2\Capture day 6 after broken\Session 2\Take08 good walk.trc
DataRate	CameraRate	NumFrames	NumMarkers	Units	OrigDataRate	OrigDataStartFrame	OrigNumFrames
120.0	120.0	6	23	mm	120.0	221	9299
Frame#	Time	ana:head1			ana:head2			ana:bone1			ana:bone2			ana:bone3			ana:tail1			ana:tail2			ana:tail3			ana:tail4			ana:Rforefoot1			ana:Rforefoot2			ana:Rforefoot3			ana:Lforefoot1			ana:Lforefoot2			ana:Lforefoot3			ana:RhindLeg1			ana:RhindLeg2			ana:RhindLeg3			ana:RhindLeg4			ana:LhindLeg1			ana:LhindLeg2			ana:LhindLeg3			ana:LhindLeg4			
		X1	Y1	Z1	X2	Y2	Z2	X3	Y3	Z3	X4	Y4	Z4	X5	Y5	Z5	X6	Y6	Z6	X7	Y7	Z7	X8	Y8	Z8	X9	Y9	Z9	X10	Y10	Z10	X11	Y11	Z11	X12	Y12	Z12	X13	Y13	Z13	X14	Y14	Z14	X15	Y15	Z15	X16	Y16	Z16	X17	Y17	Z17	X18	Y18	Z18	X19	Y19	Z19	X20	Y20	Z20	X21	Y21	Z21	X22	Y22	Z22	X23	Y23	Z23	

8853	73.767	287.57486	51.58670	44.22882	279.05606	58.77295	45.46876	262.32391	72.12395	39.61369	244.05199	91.64414	39.94648	213.13684	112.42130	36.10373	184.05878	127.65989	31.23445	155.75061	145.61052	22.20414	122.63380	174.67455	10.20361	99.49128	198.26277	6.49177	252.00621	64.73444	24.89178	237.16557	69.65527	22.36968	228.41397	81.78414	8.68398	274.04486	77.70576	22.85090	280.13986	86.51969	13.61973	281.98618	75.90895	3.03154	206.67145	103.75272	29.23369	202.56741	88.55519	23.84496	190.27586	94.51376	9.27807	197.50043	85.80708	3.09660	215.73984	122.59499	29.80957	214.68468	138.91353	24.20841	202.03531	157.52191	19.33669	200.57578	163.61458	9.85245	
8854	73.775	289.60916	50.55309	44.76813	281.25180	57.58915	45.66364	263.99832	70.92882	39.84583	245.29648	89.96404	40.16249	214.90601	110.70277	36.41282	185.58353	126.67876	30.85602	157.24188	144.31042	22.02575	123.91604	173.05193	10.14476	100.92886	196.62024	6.37666	253.94675	62.74010	25.91087	239.23814	67.49724	23.46385	230.14453	77.69138	9.30902	275.55142	76.98547	23.13891	280.61414	86.36806	13.86346	282.01614	75.94503	3.02125	207.86320	102.29684	29.35412	202.55127	87.93816	23.44363	190.33017	94.43409	9.06486	197.38914	85.51080	3.28456	217.52481	120.93834	29.95864	216.43089	137.57832	24.63221	204.26183	156.23077	19.74826	203.24103	165.02591	11.91431	
8855	73.783	291.33893	49.41848	44.82043	283.41360	56.36144	46.11370	265.79544	69.56184	39.89681	246.42340	88.20016	40.23465	215.59036	109.30392	36.24205	187.06818	125.66418	30.98682	159.01213	143.49640	21.99893	125.42597	172.06569	9.80455	102.18770	195.15620	6.20772	256.50079	61.33927	26.66599	241.21112	64.63890	24.74183	232.48978	73.21287	8.42210	276.52734	76.15321	23.14466	281.09882	86.36849	13.95642	282.00021	75.94964	3.00766	209.26218	100.84508	28.56731	202.51027	87.37209	23.25775	190.18639	94.43271	9.33348	197.21175	85.25179	3.60222	218.92056	119.34460	30.26191	218.27838	136.05623	25.01889	206.08412	154.86229	19.36761	203.69118	162.18127	10.68174	
8856	73.792	293.09210	48.32809	45.20660	284.81595	55.72001	46.20108	267.37100	68.31206	40.27205	247.61365	86.63016	40.46843	217.27591	107.58950	36.53679	188.64799	124.63680	30.99290	160.57867	142.64217	21.85656	127.05360	170.95488	9.61814	103.47672	193.82167	6.20831	259.28714	59.93688	26.75354	243.32074	61.86404	25.48865	234.34792	67.11308	8.72616	277.87915	75.72535	23.21755	281.44675	86.08672	14.13622	282.12109	75.82012	2.94146	210.09897	99.75178	28.53882	202.77579	86.38548	23.01332	190.22667	94.06790	9.69736	197.46257	85.37393	3.40589	220.38614	117.89131	30.70791	219.83159	134.20583	24.90548	207.31914	153.19426	19.05811	205.11159	160.46167	10.38945	
8857	73.800	294.71872	47.68280	45.49215	286.44440	54.68235	46.36029	269.28268	67.36075	40.21603	248.71082	85.05786	40.34327	218.40919	106.12009	36.48906	190.09474	123.52501	31.28452	162.07117	142.05803	21.90354	128.76434	170.16429	9.55836	105.10025	192.91365	6.23972	261.93738	57.68198	27.37681	245.90036	58.64902	27.82673	236.67459	60.65890	10.03399	279.28644	75.46559	23.45763	282.96075	85.45655	15.15834	282.08218	75.95282	3.09096	210.92203	98.42532	28.63117	202.64618	85.83966	22.89723	190.15849	94.06213	10.07508	197.66443	85.52336	3.76400	221.67101	116.17155	30.17657	221.25127	133.19743	24.36851	207.93878	150.93839	17.96508	205.21606	157.44279	8.73412	
8858	73.808	296.62152	46.87662	45.27090	288.45078	54.18113	46.18441	270.94119	66.50057	40.25166	249.77960	83.69109	40.28354	219.35991	104.77629	36.18060	191.52428	122.81266	30.83189	163.84212	141.12422	21.65236	130.06685	169.54138	9.57791	106.37246	192.21722	6.12315	264.04208	56.68716	27.60697	248.61256	55.22420	29.16051	240.12352	52.82076	11.97853	280.26816	74.78834	23.39643	282.56622	84.87000	15.40571	282.10190	75.58018	2.82690	211.61859	97.30739	28.38666	202.55481	85.04482	22.76275	190.28348	93.89680	10.41389	197.68053	85.46144	3.71370	222.66881	114.67818	29.88779	222.71138	130.85460	23.91656	208.62035	148.07353	16.51469	206.58833	155.25827	7.64975	
